<svg width="37" height="49" viewBox="0 0 37 49" fill="none" xmlns="http://www.w3.org/2000/svg">
<path d="M28.6363 23.8205C30.0238 21.849 30.8332 19.4469 30.8332 16.8438C30.8332 10.0775 25.3121 4.59375 18.4998 4.59375C11.6876 4.59375 6.1665 10.0775 6.1665 16.8438C6.1665 19.4469 6.97588 21.849 8.36338 23.8205C8.71989 24.3277 9.14385 24.902 9.59671 25.5145C10.8397 27.2084 12.3235 29.2373 13.4316 31.2375C14.4337 33.0559 14.9444 34.9508 15.1949 36.7404H10.5024C10.2905 35.592 9.93395 34.4723 9.36546 33.4387C8.41156 31.716 7.2264 30.0986 6.04124 28.4813C5.5402 27.8018 5.03916 27.1223 4.55739 26.4332C2.65921 23.7248 1.5415 20.4135 1.5415 16.8438C1.5415 7.54141 9.13421 0 18.4998 0C27.8655 0 35.4582 7.54141 35.4582 16.8438C35.4582 20.4135 34.3405 23.7248 32.4327 26.4428C31.9509 27.1318 31.4498 27.8113 30.9488 28.4908C29.7636 30.0986 28.5785 31.716 27.6246 33.4482C27.0561 34.4818 26.6996 35.6016 26.4876 36.75H21.8144C22.0649 34.9604 22.5756 33.0559 23.5777 31.2471C24.6858 29.2469 26.1696 27.218 27.4126 25.524C27.8655 24.9115 28.2798 24.3373 28.6363 23.8301V23.8205ZM18.4998 12.25C15.9465 12.25 13.8748 14.3076 13.8748 16.8438C13.8748 17.6859 13.1811 18.375 12.3332 18.375C11.4853 18.375 10.7915 17.6859 10.7915 16.8438C10.7915 12.6137 14.241 9.1875 18.4998 9.1875C19.3478 9.1875 20.0415 9.87656 20.0415 10.7188C20.0415 11.5609 19.3478 12.25 18.4998 12.25ZM18.4998 49C14.241 49 10.7915 45.5738 10.7915 41.3438V39.8125H26.2082V41.3438C26.2082 45.5738 22.7587 49 18.4998 49Z" fill="#705F52"/>
</svg>
