<svg width="22" height="25" viewBox="0 0 22 25" fill="none" xmlns="http://www.w3.org/2000/svg">
<path fill-rule="evenodd" clip-rule="evenodd" d="M11.3944 24.4623C13.3043 23.5129 21.5 18.9911 21.5 11.3079C21.5 5.57643 16.799 0.930176 11 0.930176C5.20101 0.930176 0.5 5.57643 0.5 11.3079C0.5 18.9911 8.6957 23.5129 10.6056 24.4623C10.8579 24.5878 11.1421 24.5878 11.3944 24.4623ZM11 15.7554C13.4853 15.7554 15.5 13.7642 15.5 11.3079C15.5 8.85154 13.4853 6.86028 11 6.86028C8.51472 6.86028 6.5 8.85154 6.5 11.3079C6.5 13.7642 8.51472 15.7554 11 15.7554Z" fill="#222222"/>
</svg>
