<svg width="43" height="43" viewBox="0 0 43 43" fill="none" xmlns="http://www.w3.org/2000/svg">
<g clip-path="url(#clip0_23_195)">
<path d="M13.1519 32.3256L10.5568 29.7305C9.84293 29.0166 9.59097 27.9836 9.91012 27.0262C10.1621 26.2787 10.498 25.3045 10.9011 24.1875H2.01558C1.29332 24.1875 0.621444 23.8012 0.260311 23.1713C-0.100822 22.5414 -0.0924234 21.7688 0.277108 21.1473L4.68629 13.7147C5.77808 11.8754 7.75172 10.75 9.88492 10.75H16.7968C16.9984 10.4141 17.2 10.1033 17.4015 9.801C24.2798 -0.344313 34.5259 -0.68025 40.64 0.445141C41.6142 0.621508 42.3701 1.38577 42.5548 2.35998C43.6802 8.48245 43.3359 18.7201 33.199 25.5985C32.905 25.8 32.5859 26.0016 32.25 26.2031V33.1151C32.25 35.2483 31.1246 37.2303 29.2853 38.3137L21.8527 42.7229C21.2312 43.0924 20.4586 43.1008 19.8287 42.7397C19.1988 42.3785 18.8125 41.7151 18.8125 40.9844V31.9813C17.6283 32.3928 16.5953 32.7287 15.8142 32.9807C14.8736 33.283 13.849 33.0227 13.1435 32.3256H13.1519ZM32.25 14.1094C33.1409 14.1094 33.9954 13.7555 34.6254 13.1255C35.2554 12.4955 35.6093 11.641 35.6093 10.75C35.6093 9.85906 35.2554 9.00459 34.6254 8.37459C33.9954 7.74458 33.1409 7.39065 32.25 7.39065C31.359 7.39065 30.5045 7.74458 29.8745 8.37459C29.2445 9.00459 28.8906 9.85906 28.8906 10.75C28.8906 11.641 29.2445 12.4955 29.8745 13.1255C30.5045 13.7555 31.359 14.1094 32.25 14.1094Z" fill="#705F52"/>
</g>
<defs>
<clipPath id="clip0_23_195">
<rect width="43" height="43" fill="white"/>
</clipPath>
</defs>
</svg>
